<mxfile host="www.draw.io" modified="2020-02-20T20:39:44.394Z" agent="Mozilla/5.0 (Windows NT 10.0; Win64; x64) AppleWebKit/537.36 (KHTML, like Gecko) Chrome/80.0.3987.116 Safari/537.36" etag="6j_aOmMST4VQGcgteI3y" version="12.7.2" type="github">
  <diagram id="pEHj8gA7eJrd1sAcKQx-" name="Page-1">
    <mxGraphModel dx="1662" dy="798" grid="1" gridSize="10" guides="1" tooltips="1" connect="1" arrows="1" fold="1" page="1" pageScale="1" pageWidth="850" pageHeight="1100" math="0" shadow="0">
      <root>
        <mxCell id="0" />
        <mxCell id="1" parent="0" />
        <mxCell id="D7U8yalIRQosWAP7iNRk-18" style="edgeStyle=orthogonalEdgeStyle;rounded=0;orthogonalLoop=1;jettySize=auto;html=1;exitX=0;exitY=0.5;exitDx=0;exitDy=0;entryX=1;entryY=0.5;entryDx=0;entryDy=0;" edge="1" parent="1" source="D7U8yalIRQosWAP7iNRk-1" target="D7U8yalIRQosWAP7iNRk-13">
          <mxGeometry relative="1" as="geometry" />
        </mxCell>
        <mxCell id="D7U8yalIRQosWAP7iNRk-1" value="Administrator" style="rounded=0;whiteSpace=wrap;html=1;" vertex="1" parent="1">
          <mxGeometry x="1010" y="420" width="130" height="60" as="geometry" />
        </mxCell>
        <mxCell id="D7U8yalIRQosWAP7iNRk-14" style="edgeStyle=orthogonalEdgeStyle;rounded=0;orthogonalLoop=1;jettySize=auto;html=1;exitX=0;exitY=0.5;exitDx=0;exitDy=0;entryX=1;entryY=0.5;entryDx=0;entryDy=0;" edge="1" parent="1" source="D7U8yalIRQosWAP7iNRk-3" target="D7U8yalIRQosWAP7iNRk-12">
          <mxGeometry relative="1" as="geometry" />
        </mxCell>
        <mxCell id="D7U8yalIRQosWAP7iNRk-3" value="Customer" style="rounded=0;whiteSpace=wrap;html=1;" vertex="1" parent="1">
          <mxGeometry x="1010" y="250" width="120" height="60" as="geometry" />
        </mxCell>
        <mxCell id="D7U8yalIRQosWAP7iNRk-6" style="edgeStyle=orthogonalEdgeStyle;rounded=0;orthogonalLoop=1;jettySize=auto;html=1;entryX=1;entryY=0.5;entryDx=0;entryDy=0;" edge="1" parent="1" target="D7U8yalIRQosWAP7iNRk-3">
          <mxGeometry relative="1" as="geometry">
            <mxPoint x="1187" y="330" as="sourcePoint" />
          </mxGeometry>
        </mxCell>
        <mxCell id="D7U8yalIRQosWAP7iNRk-7" style="edgeStyle=orthogonalEdgeStyle;rounded=0;orthogonalLoop=1;jettySize=auto;html=1;exitX=0.017;exitY=0.988;exitDx=0;exitDy=0;entryX=1;entryY=0.5;entryDx=0;entryDy=0;exitPerimeter=0;" edge="1" parent="1" source="D7U8yalIRQosWAP7iNRk-4" target="D7U8yalIRQosWAP7iNRk-1">
          <mxGeometry relative="1" as="geometry" />
        </mxCell>
        <mxCell id="D7U8yalIRQosWAP7iNRk-4" value="ISA" style="triangle;whiteSpace=wrap;html=1;" vertex="1" parent="1">
          <mxGeometry x="1190" y="330" width="60" height="80" as="geometry" />
        </mxCell>
        <mxCell id="D7U8yalIRQosWAP7iNRk-9" style="edgeStyle=orthogonalEdgeStyle;rounded=0;orthogonalLoop=1;jettySize=auto;html=1;exitX=0;exitY=0.5;exitDx=0;exitDy=0;" edge="1" parent="1" source="D7U8yalIRQosWAP7iNRk-5" target="D7U8yalIRQosWAP7iNRk-4">
          <mxGeometry relative="1" as="geometry" />
        </mxCell>
        <mxCell id="D7U8yalIRQosWAP7iNRk-5" value="User" style="rounded=0;whiteSpace=wrap;html=1;" vertex="1" parent="1">
          <mxGeometry x="1330" y="340" width="120" height="60" as="geometry" />
        </mxCell>
        <mxCell id="D7U8yalIRQosWAP7iNRk-21" style="edgeStyle=orthogonalEdgeStyle;rounded=0;orthogonalLoop=1;jettySize=auto;html=1;exitX=0;exitY=0.5;exitDx=0;exitDy=0;" edge="1" parent="1" source="D7U8yalIRQosWAP7iNRk-10" target="D7U8yalIRQosWAP7iNRk-20">
          <mxGeometry relative="1" as="geometry" />
        </mxCell>
        <mxCell id="D7U8yalIRQosWAP7iNRk-10" value="Feedback" style="rounded=0;whiteSpace=wrap;html=1;" vertex="1" parent="1">
          <mxGeometry x="690" y="330" width="120" height="60" as="geometry" />
        </mxCell>
        <mxCell id="D7U8yalIRQosWAP7iNRk-15" style="edgeStyle=orthogonalEdgeStyle;rounded=0;orthogonalLoop=1;jettySize=auto;html=1;exitX=0;exitY=0.5;exitDx=0;exitDy=0;" edge="1" parent="1" source="D7U8yalIRQosWAP7iNRk-12" target="D7U8yalIRQosWAP7iNRk-10">
          <mxGeometry relative="1" as="geometry" />
        </mxCell>
        <mxCell id="D7U8yalIRQosWAP7iNRk-12" value="provides" style="rhombus;whiteSpace=wrap;html=1;" vertex="1" parent="1">
          <mxGeometry x="870" y="270" width="80" height="80" as="geometry" />
        </mxCell>
        <mxCell id="D7U8yalIRQosWAP7iNRk-16" style="edgeStyle=orthogonalEdgeStyle;rounded=0;orthogonalLoop=1;jettySize=auto;html=1;exitX=0;exitY=0.5;exitDx=0;exitDy=0;entryX=1;entryY=0.75;entryDx=0;entryDy=0;" edge="1" parent="1" source="D7U8yalIRQosWAP7iNRk-13" target="D7U8yalIRQosWAP7iNRk-10">
          <mxGeometry relative="1" as="geometry" />
        </mxCell>
        <mxCell id="D7U8yalIRQosWAP7iNRk-13" value="approves" style="rhombus;whiteSpace=wrap;html=1;" vertex="1" parent="1">
          <mxGeometry x="870" y="390" width="80" height="80" as="geometry" />
        </mxCell>
        <mxCell id="D7U8yalIRQosWAP7iNRk-19" value="Product" style="rounded=0;whiteSpace=wrap;html=1;" vertex="1" parent="1">
          <mxGeometry x="400" y="330" width="120" height="60" as="geometry" />
        </mxCell>
        <mxCell id="D7U8yalIRQosWAP7iNRk-22" style="edgeStyle=orthogonalEdgeStyle;rounded=0;orthogonalLoop=1;jettySize=auto;html=1;exitX=0;exitY=0.5;exitDx=0;exitDy=0;entryX=1;entryY=0.5;entryDx=0;entryDy=0;" edge="1" parent="1" source="D7U8yalIRQosWAP7iNRk-20" target="D7U8yalIRQosWAP7iNRk-19">
          <mxGeometry relative="1" as="geometry" />
        </mxCell>
        <mxCell id="D7U8yalIRQosWAP7iNRk-20" value="pertains to" style="rhombus;whiteSpace=wrap;html=1;" vertex="1" parent="1">
          <mxGeometry x="560" y="320" width="80" height="80" as="geometry" />
        </mxCell>
        <mxCell id="D7U8yalIRQosWAP7iNRk-36" style="edgeStyle=none;rounded=0;orthogonalLoop=1;jettySize=auto;html=1;exitX=1;exitY=0;exitDx=0;exitDy=0;" edge="1" parent="1" source="D7U8yalIRQosWAP7iNRk-35" target="D7U8yalIRQosWAP7iNRk-19">
          <mxGeometry relative="1" as="geometry" />
        </mxCell>
        <mxCell id="D7U8yalIRQosWAP7iNRk-35" value="name" style="ellipse;whiteSpace=wrap;html=1;fontStyle=4" vertex="1" parent="1">
          <mxGeometry x="330" y="260" width="50" height="40" as="geometry" />
        </mxCell>
        <mxCell id="D7U8yalIRQosWAP7iNRk-43" style="edgeStyle=none;rounded=0;orthogonalLoop=1;jettySize=auto;html=1;exitX=0.5;exitY=1;exitDx=0;exitDy=0;entryX=0.5;entryY=0;entryDx=0;entryDy=0;" edge="1" parent="1" source="D7U8yalIRQosWAP7iNRk-40" target="D7U8yalIRQosWAP7iNRk-19">
          <mxGeometry relative="1" as="geometry" />
        </mxCell>
        <mxCell id="D7U8yalIRQosWAP7iNRk-40" value="Description" style="ellipse;whiteSpace=wrap;html=1;" vertex="1" parent="1">
          <mxGeometry x="425" y="220" width="70" height="60" as="geometry" />
        </mxCell>
        <mxCell id="D7U8yalIRQosWAP7iNRk-45" style="edgeStyle=none;rounded=0;orthogonalLoop=1;jettySize=auto;html=1;exitX=0;exitY=1;exitDx=0;exitDy=0;entryX=0.75;entryY=0;entryDx=0;entryDy=0;" edge="1" parent="1" source="D7U8yalIRQosWAP7iNRk-44" target="D7U8yalIRQosWAP7iNRk-19">
          <mxGeometry relative="1" as="geometry" />
        </mxCell>
        <mxCell id="D7U8yalIRQosWAP7iNRk-44" value="Type" style="ellipse;whiteSpace=wrap;html=1;" vertex="1" parent="1">
          <mxGeometry x="520" y="260" width="70" height="40" as="geometry" />
        </mxCell>
        <mxCell id="D7U8yalIRQosWAP7iNRk-50" style="edgeStyle=none;rounded=0;orthogonalLoop=1;jettySize=auto;html=1;exitX=0.5;exitY=1;exitDx=0;exitDy=0;entryX=0.25;entryY=0;entryDx=0;entryDy=0;" edge="1" parent="1" source="D7U8yalIRQosWAP7iNRk-49" target="D7U8yalIRQosWAP7iNRk-10">
          <mxGeometry relative="1" as="geometry" />
        </mxCell>
        <mxCell id="D7U8yalIRQosWAP7iNRk-49" value="TicketID" style="ellipse;whiteSpace=wrap;html=1;fontStyle=4" vertex="1" parent="1">
          <mxGeometry x="630" y="260" width="60" height="40" as="geometry" />
        </mxCell>
        <mxCell id="D7U8yalIRQosWAP7iNRk-52" style="edgeStyle=none;rounded=0;orthogonalLoop=1;jettySize=auto;html=1;exitX=0.5;exitY=1;exitDx=0;exitDy=0;entryX=0.5;entryY=0;entryDx=0;entryDy=0;" edge="1" parent="1" source="D7U8yalIRQosWAP7iNRk-51" target="D7U8yalIRQosWAP7iNRk-10">
          <mxGeometry relative="1" as="geometry" />
        </mxCell>
        <mxCell id="D7U8yalIRQosWAP7iNRk-51" value="Title" style="ellipse;whiteSpace=wrap;html=1;" vertex="1" parent="1">
          <mxGeometry x="710" y="220" width="40" height="30" as="geometry" />
        </mxCell>
        <mxCell id="D7U8yalIRQosWAP7iNRk-54" style="edgeStyle=none;rounded=0;orthogonalLoop=1;jettySize=auto;html=1;exitX=0.5;exitY=1;exitDx=0;exitDy=0;entryX=0.75;entryY=0;entryDx=0;entryDy=0;" edge="1" parent="1" source="D7U8yalIRQosWAP7iNRk-53" target="D7U8yalIRQosWAP7iNRk-10">
          <mxGeometry relative="1" as="geometry" />
        </mxCell>
        <mxCell id="D7U8yalIRQosWAP7iNRk-53" value="Text" style="ellipse;whiteSpace=wrap;html=1;" vertex="1" parent="1">
          <mxGeometry x="780" y="240" width="60" height="40" as="geometry" />
        </mxCell>
        <mxCell id="D7U8yalIRQosWAP7iNRk-56" style="edgeStyle=none;rounded=0;orthogonalLoop=1;jettySize=auto;html=1;exitX=0.5;exitY=1;exitDx=0;exitDy=0;entryX=0.5;entryY=0;entryDx=0;entryDy=0;" edge="1" parent="1" source="D7U8yalIRQosWAP7iNRk-55" target="D7U8yalIRQosWAP7iNRk-12">
          <mxGeometry relative="1" as="geometry" />
        </mxCell>
        <mxCell id="D7U8yalIRQosWAP7iNRk-55" value="Time&lt;br&gt;" style="ellipse;whiteSpace=wrap;html=1;" vertex="1" parent="1">
          <mxGeometry x="880" y="190" width="60" height="40" as="geometry" />
        </mxCell>
        <mxCell id="D7U8yalIRQosWAP7iNRk-58" style="edgeStyle=none;rounded=0;orthogonalLoop=1;jettySize=auto;html=1;exitX=0.5;exitY=0;exitDx=0;exitDy=0;entryX=0.5;entryY=1;entryDx=0;entryDy=0;" edge="1" parent="1" source="D7U8yalIRQosWAP7iNRk-57" target="D7U8yalIRQosWAP7iNRk-13">
          <mxGeometry relative="1" as="geometry" />
        </mxCell>
        <mxCell id="D7U8yalIRQosWAP7iNRk-57" value="Time" style="ellipse;whiteSpace=wrap;html=1;" vertex="1" parent="1">
          <mxGeometry x="885" y="510" width="50" height="40" as="geometry" />
        </mxCell>
        <mxCell id="D7U8yalIRQosWAP7iNRk-62" style="edgeStyle=none;rounded=0;orthogonalLoop=1;jettySize=auto;html=1;exitX=0.5;exitY=1;exitDx=0;exitDy=0;entryX=0.25;entryY=0;entryDx=0;entryDy=0;" edge="1" parent="1" source="D7U8yalIRQosWAP7iNRk-59" target="D7U8yalIRQosWAP7iNRk-3">
          <mxGeometry relative="1" as="geometry" />
        </mxCell>
        <mxCell id="D7U8yalIRQosWAP7iNRk-59" value="Name" style="ellipse;whiteSpace=wrap;html=1;" vertex="1" parent="1">
          <mxGeometry x="980" y="180" width="60" height="40" as="geometry" />
        </mxCell>
        <mxCell id="D7U8yalIRQosWAP7iNRk-63" style="edgeStyle=none;rounded=0;orthogonalLoop=1;jettySize=auto;html=1;exitX=0.5;exitY=1;exitDx=0;exitDy=0;entryX=0.5;entryY=0;entryDx=0;entryDy=0;" edge="1" parent="1" source="D7U8yalIRQosWAP7iNRk-60" target="D7U8yalIRQosWAP7iNRk-3">
          <mxGeometry relative="1" as="geometry" />
        </mxCell>
        <mxCell id="D7U8yalIRQosWAP7iNRk-60" value="Surname" style="ellipse;whiteSpace=wrap;html=1;" vertex="1" parent="1">
          <mxGeometry x="1045" y="170" width="60" height="40" as="geometry" />
        </mxCell>
        <mxCell id="D7U8yalIRQosWAP7iNRk-66" style="edgeStyle=none;rounded=0;orthogonalLoop=1;jettySize=auto;html=1;exitX=0;exitY=1;exitDx=0;exitDy=0;" edge="1" parent="1" source="D7U8yalIRQosWAP7iNRk-61" target="D7U8yalIRQosWAP7iNRk-3">
          <mxGeometry relative="1" as="geometry" />
        </mxCell>
        <mxCell id="D7U8yalIRQosWAP7iNRk-61" value="email" style="ellipse;whiteSpace=wrap;html=1;fontStyle=4" vertex="1" parent="1">
          <mxGeometry x="1120" y="180" width="60" height="40" as="geometry" />
        </mxCell>
        <mxCell id="D7U8yalIRQosWAP7iNRk-68" style="edgeStyle=none;rounded=0;orthogonalLoop=1;jettySize=auto;html=1;exitX=0;exitY=0.5;exitDx=0;exitDy=0;entryX=1;entryY=0;entryDx=0;entryDy=0;" edge="1" parent="1" source="D7U8yalIRQosWAP7iNRk-67" target="D7U8yalIRQosWAP7iNRk-3">
          <mxGeometry relative="1" as="geometry" />
        </mxCell>
        <mxCell id="D7U8yalIRQosWAP7iNRk-67" value="password" style="ellipse;whiteSpace=wrap;html=1;" vertex="1" parent="1">
          <mxGeometry x="1170" y="215" width="60" height="45" as="geometry" />
        </mxCell>
        <mxCell id="D7U8yalIRQosWAP7iNRk-74" style="edgeStyle=none;rounded=0;orthogonalLoop=1;jettySize=auto;html=1;exitX=1;exitY=0;exitDx=0;exitDy=0;entryX=0.25;entryY=1;entryDx=0;entryDy=0;" edge="1" parent="1" source="D7U8yalIRQosWAP7iNRk-70" target="D7U8yalIRQosWAP7iNRk-1">
          <mxGeometry relative="1" as="geometry" />
        </mxCell>
        <mxCell id="D7U8yalIRQosWAP7iNRk-70" value="Name" style="ellipse;whiteSpace=wrap;html=1;" vertex="1" parent="1">
          <mxGeometry x="970" y="500" width="60" height="40" as="geometry" />
        </mxCell>
        <mxCell id="D7U8yalIRQosWAP7iNRk-75" style="edgeStyle=none;rounded=0;orthogonalLoop=1;jettySize=auto;html=1;exitX=0.5;exitY=0;exitDx=0;exitDy=0;entryX=0.5;entryY=1;entryDx=0;entryDy=0;" edge="1" parent="1" source="D7U8yalIRQosWAP7iNRk-71" target="D7U8yalIRQosWAP7iNRk-1">
          <mxGeometry relative="1" as="geometry" />
        </mxCell>
        <mxCell id="D7U8yalIRQosWAP7iNRk-71" value="Surname" style="ellipse;whiteSpace=wrap;html=1;" vertex="1" parent="1">
          <mxGeometry x="1040" y="520" width="60" height="40" as="geometry" />
        </mxCell>
        <mxCell id="D7U8yalIRQosWAP7iNRk-76" style="edgeStyle=none;rounded=0;orthogonalLoop=1;jettySize=auto;html=1;exitX=0.5;exitY=0;exitDx=0;exitDy=0;entryX=0.75;entryY=1;entryDx=0;entryDy=0;" edge="1" parent="1" source="D7U8yalIRQosWAP7iNRk-72" target="D7U8yalIRQosWAP7iNRk-1">
          <mxGeometry relative="1" as="geometry" />
        </mxCell>
        <mxCell id="D7U8yalIRQosWAP7iNRk-72" value="&lt;u&gt;login&lt;/u&gt;" style="ellipse;whiteSpace=wrap;html=1;" vertex="1" parent="1">
          <mxGeometry x="1105" y="510" width="60" height="40" as="geometry" />
        </mxCell>
        <mxCell id="D7U8yalIRQosWAP7iNRk-77" style="edgeStyle=none;rounded=0;orthogonalLoop=1;jettySize=auto;html=1;exitX=0;exitY=0;exitDx=0;exitDy=0;entryX=1;entryY=1;entryDx=0;entryDy=0;" edge="1" parent="1" source="D7U8yalIRQosWAP7iNRk-73" target="D7U8yalIRQosWAP7iNRk-1">
          <mxGeometry relative="1" as="geometry" />
        </mxCell>
        <mxCell id="D7U8yalIRQosWAP7iNRk-73" value="password" style="ellipse;whiteSpace=wrap;html=1;fontStyle=1" vertex="1" parent="1">
          <mxGeometry x="1170" y="495" width="60" height="45" as="geometry" />
        </mxCell>
      </root>
    </mxGraphModel>
  </diagram>
</mxfile>
